# xmcd CD database file
#
# Track frame offsets:
#	150
#	25047
#	43200
#	68002
#	89837
#	114070
#	134630
#	165447
#	185902
#	203740
#	222657
#	248465
#	274232
#	300962
#
# Disc length: 4437 seconds
#
# Revision: 31
# Processed by: cddbd v1.5.2PL0 Copyright (c) Steve Scherf et al.
# Submitted via: CDex 1.70beta3
#
DISCID=c711530e
DTITLE=中島みゆき - 大吟醸
DYEAR=2002
DGENRE=JPop
TTITLE0=空と君のあいだに (シングル・バージョン)
TTITLE1=悪女
TTITLE2=あした
TTITLE3=最後の女神
TTITLE4=浅い眠り
TTITLE5=ルージュ
TTITLE6=誕生
TTITLE7=時代
TTITLE8=わかれうた
TTITLE9=ひとり上手
TTITLE10=慟哭
TTITLE11=狼になりたい
TTITLE12=旅人のうた
TTITLE13=ファイト!
EXTD=YEAR: 2002
EXTT0=
EXTT1=
EXTT2=
EXTT3=
EXTT4=
EXTT5=
EXTT6=
EXTT7=
EXTT8=
EXTT9=
EXTT10=
EXTT11=
EXTT12=
EXTT13=
PLAYORDER=
